# File created by Blade
# Date/Time:  Thu Jan 22 19:13:14 2015
# Frame Rate: 120.000 fps
#------------------------------------------------------
:FULLY-SPECIFIED
:DEGREES
2109
root 1.499489 25.807171 -6.307986 60.656664 -59.146139 -11.690435
RightUpLeg -103.759923 -0.135782 13.347826
RightLeg 60.690104 -0.000000 -0.000000
RightFoot -13.186077 2.341957 0.653461
RightToeBase 4.158547 -0.000000 -0.000000
LeftUpLeg -14.061572 41.875918 16.017916
LeftLeg 6.075244 -0.000000 -0.000000
LeftFoot -26.025959 0.102628 -44.346337
LeftToeBase 9.546178 -0.000000 -0.000000
Spine 21.779038 -37.436788 -3.819227
RightShoulder -26.692008 -19.300400 -14.166851
RightArm -5.971752 36.115289 56.914020
RightForeArm 18.045229 -0.000000 21.151492
RightHand 18.490573 -0.000000 -5.940282
RightHandThumb1 -24.326973 -0.000000 -32.862282
LeftShoulder -0.655865 -15.318010 24.285839
LeftArm 42.659061 11.004829 -56.654926
LeftForeArm 2.730759 0.000000 12.670138
LeftHand -2.025148 -0.000000 -9.201894
LeftHandThumb1 -26.253704 0.000000 33.147579
Head -20.053959 -23.936152 15.075698
2110
root 1.486600 25.789807 -6.324717 61.430015 -59.333323 -12.343731
RightUpLeg -103.868357 0.290969 13.427594
RightLeg 60.625653 -0.000000 -0.000000
RightFoot -13.149458 2.436193 0.820958
RightToeBase 4.268815 -0.000000 -0.000000
LeftUpLeg -14.003759 42.108720 16.129516
LeftLeg 6.044923 -0.000000 -0.000000
LeftFoot -26.166779 0.068609 -44.224628
LeftToeBase 9.503810 -0.000000 -0.000000
Spine 22.182956 -37.464575 -4.247920
RightShoulder -26.638147 -19.339608 -14.172309
RightArm -6.344091 36.334985 56.287155
RightForeArm 18.340307 0.000000 20.778774
RightHand 18.699439 -0.000000 -6.046715
RightHandThumb1 -24.326973 -0.000000 -32.862282
LeftShoulder -0.562278 -15.300891 24.367137
LeftArm 42.336866 10.443492 -56.805039
LeftForeArm 2.641837 -0.000000 12.370107
LeftHand -2.137722 -0.000000 -9.132230
LeftHandThumb1 -26.253704 0.000000 33.147579
Head -19.976862 -24.562768 15.527234
2111
root 1.475388 25.774796 -6.335807 62.253587 -59.529121 -13.037901
RightUpLeg -103.970852 0.718426 13.550123
RightLeg 60.542256 -0.000000 -0.000000
RightFoot -13.143100 2.589410 1.136065
RightToeBase 4.614489 -0.000000 -0.000000
LeftUpLeg -13.953334 42.399892 16.209913
LeftLeg 6.002134 -0.000000 -0.000000
LeftFoot -26.295695 0.054729 -43.993624
LeftToeBase 9.537483 -0.000000 -0.000000
Spine 22.593208 -37.478006 -4.591221
RightShoulder -26.723403 -19.314908 -14.191834
RightArm -6.653817 36.564496 55.692254
RightForeArm 18.628765 -0.000000 20.490875
RightHand 18.778895 0.000000 -6.132464
RightHandThumb1 -24.326973 -0.000000 -32.862282
LeftShoulder -0.580288 -15.208774 24.350368
LeftArm 42.221070 9.937547 -56.742800
LeftForeArm 2.558769 0.000000 12.060838
LeftHand -2.217094 -0.000000 -9.019698
LeftHandThumb1 -26.253704 0.000000 33.147579
Head -20.131601 -25.279227 15.935634
2112
root 1.464704 25.758220 -6.347244 63.073293 -59.698883 -13.722140
RightUpLeg -104.088043 1.125728 13.679788
RightLeg 60.482357 -0.000000 -0.000000
RightFoot -13.165776 2.760606 1.481697
RightToeBase 4.788908 -0.000000 -0.000000
LeftUpLeg -13.909720 42.677296 16.300442
LeftLeg 5.949359 -0.000000 -0.000000
LeftFoot -26.412818 -0.017336 -43.835960
LeftToeBase 9.615695 -0.000000 -0.000000
Spine 22.964413 -37.469314 -4.891835
RightShoulder -26.883476 -19.325247 -14.225989
RightArm -6.911224 36.918006 55.127620
RightForeArm 18.762355 -0.000000 20.222207
RightHand 18.721918 0.000000 -6.118859
RightHandThumb1 -24.326973 -0.000000 -32.862282
LeftShoulder -0.523455 -15.269184 24.343909
LeftArm 41.941223 9.546967 -56.693796
LeftForeArm 2.288408 -0.000000 11.744343
LeftHand -2.111226 -0.000000 -8.966159
LeftHandThumb1 -26.253704 0.000000 33.147579
Head -20.259365 -25.967841 16.330894
2113
root 1.457920 25.738341 -6.361554 63.860689 -59.902492 -14.424349
RightUpLeg -104.171950 1.542236 13.766538
RightLeg 60.423578 -0.000000 -0.000000
RightFoot -13.139467 2.894094 1.767583
RightToeBase 4.481735 -0.000000 -0.000000
LeftUpLeg -13.867292 43.246909 16.341046
LeftLeg 5.948229 -0.000000 -0.000000
LeftFoot -26.342996 -0.245184 -43.489063
LeftToeBase 9.535790 -0.000000 -0.000000
Spine 23.290053 -37.392653 -5.364186
RightShoulder -26.740646 -19.520171 -14.308987
RightArm -7.388599 37.464762 54.570967
RightForeArm 18.778194 -0.000000 20.034076
RightHand 18.797332 -0.000000 -6.376059
RightHandThumb1 -24.326973 -0.000000 -32.862282
LeftShoulder -0.217330 -15.058002 24.405796
LeftArm 41.722129 8.936739 -56.623608
LeftForeArm 2.137286 -0.000000 11.371061
LeftHand -2.129531 -0.000000 -8.849139
LeftHandThumb1 -26.253704 0.000000 33.147579
Head -19.810741 -26.796329 16.704059
2114
root 1.451105 25.721253 -6.374409 64.643041 -60.031995 -15.093796
RightUpLeg -104.267737 1.915451 13.887363
RightLeg 60.362521 -0.000000 -0.000000
RightFoot -13.148533 3.081259 2.059484
RightToeBase 4.474560 -0.000000 -0.000000
LeftUpLeg -13.819905 43.523151 16.456284
LeftLeg 5.900123 -0.000000 -0.000000
LeftFoot -26.470254 -0.329108 -43.245068
LeftToeBase 9.543465 -0.000000 -0.000000
Spine 23.617675 -37.238455 -5.701680
RightShoulder -26.839676 -19.649158 -14.251277
RightArm -7.796909 37.923021 53.923290
RightForeArm 18.916368 0.000000 19.837324
RightHand 18.714295 -0.000000 -6.385776
RightHandThumb1 -24.326973 -0.000000 -32.862282
LeftShoulder 0.125491 -14.998946 24.502079
LeftArm 41.459232 8.342431 -56.664479
LeftForeArm 2.063045 0.000000 11.074803
LeftHand -2.234608 -0.000000 -8.709070
LeftHandThumb1 -26.253704 0.000000 33.147579
Head -19.550786 -27.543581 17.165206
2115
root 1.443659 25.707812 -6.382453 65.466642 -60.143368 -15.799992
RightUpLeg -104.344671 2.293533 14.002230
RightLeg 60.281006 -0.000000 -0.000000
RightFoot -13.173081 3.291058 2.410136
RightToeBase 4.754588 -0.000000 -0.000000
LeftUpLeg -13.757822 43.744700 16.595826
LeftLeg 5.838805 -0.000000 -0.000000
LeftFoot -26.657804 -0.441507 -43.117631
LeftToeBase 9.729105 -0.000000 -0.000000
Spine 24.065366 -37.313986 -6.002579
RightShoulder -26.936986 -19.540346 -14.342325
RightArm -8.137717 38.234286 53.326076
RightForeArm 19.100078 -0.000000 19.728560
RightHand 18.643787 0.000000 -6.622148
RightHandThumb1 -24.326973 -0.000000 -32.862282
LeftShoulder 0.028247 -14.964460 24.489089
LeftArm 41.339858 7.977996 -56.454611
LeftForeArm 1.855499 -0.000000 10.762139
LeftHand -2.286482 -0.000000 -8.677652
LeftHandThumb1 -26.253704 0.000000 33.147579
Head -19.746719 -28.117047 17.551036
2116
root 1.439633 25.696690 -6.393771 66.288060 -60.196047 -16.446964
RightUpLeg -104.475936 2.652332 14.075165
RightLeg 60.188034 -0.000000 -0.000000
RightFoot -13.208080 3.478166 2.830812
RightToeBase 4.924841 -0.000000 -0.000000
LeftUpLeg -13.819099 43.888905 16.718064
LeftLeg 5.836616 -0.000000 -0.000000
LeftFoot -26.862892 -0.451151 -42.852348
LeftToeBase 9.754698 -0.000000 -0.000000
Spine 24.411021 -37.370105 -6.195845
RightShoulder -27.117691 -19.495868 -14.417291
RightArm -8.438017 38.626008 52.768289
RightForeArm 19.228118 -0.000000 19.662301
RightHand 18.525764 0.000000 -6.730888
RightHandThumb1 -24.326973 -0.000000 -32.862282
LeftShoulder 0.059170 -14.974759 24.486111
LeftArm 41.149023 7.684030 -56.186809
LeftForeArm 1.395667 -0.000000 10.490496
LeftHand -2.489554 0.000000 -8.525021
LeftHandThumb1 -26.253704 0.000000 33.147579
Head -19.893727 -28.712923 17.919719
2117
root 1.437407 25.687747 -6.403922 67.100441 -60.197229 -17.052314
RightUpLeg -104.638316 2.984598 14.141729
RightLeg 60.097914 -0.000000 -0.000000
RightFoot -13.229398 3.611606 3.151881
RightToeBase 4.860844 -0.000000 -0.000000
LeftUpLeg -13.935377 43.861929 16.855397
LeftLeg 5.861643 -0.000000 -0.000000
LeftFoot -27.182035 -0.355919 -42.761038
LeftToeBase 9.747165 -0.000000 -0.000000
Spine 24.727048 -37.515398 -6.341332
RightShoulder -27.203298 -19.437878 -14.537550
RightArm -8.778579 39.040344 52.207815
RightForeArm 19.447031 -0.000000 19.585895
RightHand 18.672247 -0.000000 -7.199999
RightHandThumb1 -24.326973 -0.000000 -32.862282
LeftShoulder 0.047076 -15.024607 24.465016
LeftArm 40.918376 7.313100 -55.998190
LeftForeArm 1.239465 0.000000 10.163580
LeftHand -2.577579 -0.000000 -8.528749
LeftHandThumb1 -26.253704 0.000000 33.147579
Head -19.985876 -29.288207 18.228326
2118
root 1.424370 25.671045 -6.415695 67.966577 -60.254390 -17.878234
RightUpLeg -104.639143 3.438841 14.146465
RightLeg 60.008749 -0.000000 -0.000000
RightFoot -13.193570 3.605608 3.240127
RightToeBase 4.574424 -0.000000 -0.000000
LeftUpLeg -13.722036 43.927103 17.200619
LeftLeg 5.829965 -0.000000 -0.000000
LeftFoot -27.425930 -0.309408 -42.939401
LeftToeBase 9.778026 -0.000000 -0.000000
Spine 25.187369 -37.441472 -6.637763
RightShoulder -27.325588 -19.464468 -14.543972
RightArm -9.054938 39.514075 51.668918
RightForeArm 19.694132 -0.000000 19.462877
RightHand 18.856817 0.000000 -7.707569
RightHandThumb1 -24.326973 -0.000000 -32.862282
LeftShoulder 0.093297 -14.914665 24.497015
LeftArm 40.852419 6.924910 -55.737619
LeftForeArm 1.019100 -0.000000 9.801849
LeftHand -2.619742 -0.000000 -8.503642
LeftHandThumb1 -26.253704 0.000000 33.147579
Head -20.040797 -29.879881 18.639487
